<svg width="35" height="36" viewBox="0 0 35 36" fill="none" xmlns="http://www.w3.org/2000/svg">
<path d="M0 18C0 8.33502 7.83502 0.5 17.5 0.5C27.165 0.5 35 8.33502 35 18C35 27.665 27.165 35.5 17.5 35.5C7.83502 35.5 0 27.665 0 18Z" fill="#6059F7"/>
<mask id="mask0_743_121" style="mask-type:alpha" maskUnits="userSpaceOnUse" x="0" y="0" width="35" height="36">
<path d="M0 18C0 8.33502 7.83502 0.5 17.5 0.5C27.165 0.5 35 8.33502 35 18C35 27.665 27.165 35.5 17.5 35.5C7.83502 35.5 0 27.665 0 18Z" fill="#6059F7"/>
</mask>
<g mask="url(#mask0_743_121)">
<path d="M13.4169 19.8158C15.161 20.4096 17.0646 19.4527 17.6687 17.6784C18.2729 15.904 17.3488 13.9843 15.6048 13.3904C13.8607 12.7966 11.9571 13.7535 11.353 15.5278C10.7488 17.3021 11.6729 19.2219 13.4169 19.8158Z" fill="white"/>
<path d="M17.2616 10.7647L16.9386 9.70341L17.365 10.7262L17.2616 10.7647Z" fill="white"/>
<path d="M17.4952 11.1114L17.4688 10.8401L17.3149 10.6257L17.2038 10.8296L17.2238 11.0782L17.2456 11.3177L17.3972 11.4587L17.5116 11.3321L17.4952 11.1114ZM17.3182 10.958C17.311 10.9354 17.3095 10.9114 17.3135 10.8879C17.3176 10.8645 17.3271 10.8423 17.3414 10.8233C17.3676 10.8999 17.3454 11.0072 17.3182 10.958ZM17.2753 11.2444C17.2687 11.2217 17.2674 11.1978 17.2715 11.1744C17.2755 11.1511 17.2848 11.1289 17.2986 11.1097C17.3248 11.1863 17.3025 11.2935 17.2753 11.2444ZM17.401 11.1228C17.3939 11.1002 17.3923 11.0762 17.3964 11.0527C17.4005 11.0293 17.41 11.0071 17.4243 10.9881C17.4477 11.0589 17.4244 11.1658 17.401 11.1228ZM17.3928 11.311C17.3856 11.2886 17.384 11.2648 17.388 11.2415C17.392 11.2182 17.4015 11.1962 17.4157 11.1774C17.4419 11.254 17.4197 11.3612 17.3928 11.311Z" fill="white"/>
<path d="M17.3794 9.60932C17.3794 9.60932 15.2072 9.56112 12.3498 8.05025C12.3498 8.05025 9.9829 12.2099 8.05522 13.4222C8.05522 13.4222 9.49163 12.9443 10.5467 12.9409L10.5784 12.907L10.5922 12.8875C10.607 12.8648 10.6298 12.8363 10.6595 12.798C10.718 12.7237 10.8048 12.6191 10.9159 12.5022C10.9724 12.4408 11.0325 12.3807 11.0961 12.3218C11.1634 12.2601 11.2337 12.1934 11.3103 12.1288C11.387 12.0643 11.4672 11.9997 11.5499 11.9348C11.6326 11.8699 11.7205 11.8104 11.8061 11.7476C11.8916 11.6849 11.9845 11.6319 12.0713 11.5757L12.3357 11.4239L12.5891 11.2938C12.669 11.251 12.7496 11.2204 12.8201 11.1876C12.8907 11.1548 12.9605 11.1242 13.0189 11.1029L13.1731 11.0442L13.3094 10.9928L13.1776 11.0518L13.0258 11.121C12.9667 11.1444 12.9043 11.1812 12.8341 11.2165C12.7638 11.2518 12.6907 11.2885 12.6096 11.3347L12.3668 11.4792L12.1173 11.636C12.0336 11.697 11.9481 11.7561 11.8658 11.8199C11.7835 11.8838 11.7029 11.9494 11.6248 12.0183C11.5467 12.0872 11.4711 12.1521 11.4012 12.2214C11.3313 12.2907 11.2649 12.3563 11.2025 12.4209C11.1402 12.4855 11.086 12.5504 11.0362 12.606C10.935 12.7251 10.859 12.8297 10.8068 12.9026C10.7811 12.9398 10.7619 12.9683 10.7506 12.9874L10.7307 13.0181L10.7055 13.0676C10.8209 13.1802 10.9037 13.3228 10.9452 13.4801C10.9866 13.6375 10.985 13.8037 10.9407 13.9611C10.9407 13.9611 13.1056 11.8916 16.0207 12.2701C16.0207 12.2701 15.9565 10.6092 17.3794 9.60932Z" fill="white"/>
<path d="M8.63337 20.7967C8.68081 20.8841 9.19882 20.9191 9.28485 20.9351C9.85674 21.0396 10.4342 21.112 11.0147 21.1518C12.6854 21.2698 14.4184 21.1419 16.0045 20.5421C17.3833 20.0204 18.4101 19.4091 19.6021 18.5603C21.0808 17.5045 22.5459 15.9026 23.9434 14.8409C22.2391 19.2001 19.9387 23.3 17.1103 27.0192C14.515 30.4121 11.4238 33.4681 7.80099 35.7157C6.26904 36.6724 4.64491 37.4663 2.95472 38.0846C2.95472 38.0846 8.68698 34.4013 12.6983 28.1303C12.6983 28.1303 5.6471 34.5532 2.67975 34.8724C2.67975 34.8724 6.98667 32.7127 8.64854 26.5095C8.64854 26.5095 15.1943 25.5037 17.2555 22.3219C17.2555 22.3219 14.7093 23.9933 9.85158 23.0113L8.63337 20.7967Z" fill="white"/>
<path d="M18.8714 17.0773L19.2319 15.5091L27.3551 9.70982L26.1657 9.40999L28.6433 8.8019L27.5741 11.1986L27.4973 9.95526L20.4193 17.0291L18.8714 17.0773Z" fill="white"/>
</g>
</svg>
