<?xml version="1.0" encoding="utf-8"?>
<!-- Generator: Adobe Illustrator 24.1.1, SVG Export Plug-In . SVG Version: 6.00 Build 0)  -->
<svg version="1.1" id="Layer_1" xmlns="http://www.w3.org/2000/svg" xmlns:xlink="http://www.w3.org/1999/xlink" x="0px" y="0px"
	 viewBox="0 0 26 25" style="enable-background:new 0 0 26 25;" xml:space="preserve">
<style type="text/css">
	.st0{fill:#FF0000;filter:url(#Adobe_OpacityMaskFilter);}
	.st1{mask:url(#mask0_457_168_1_);}
	.st2{fill:#020202;}
</style>
<defs>
	<filter id="Adobe_OpacityMaskFilter" filterUnits="userSpaceOnUse" x="0.2" y="0.2" width="25.5" height="24.6">
		<feColorMatrix  type="matrix" values="1 0 0 0 0  0 1 0 0 0  0 0 1 0 0  0 0 0 1 0"/>
	</filter>
</defs>
<mask maskUnits="userSpaceOnUse" x="0.2" y="0.2" width="25.5" height="24.6" id="mask0_457_168_1_">
	<rect class="st0" width="26" height="25"/>
</mask>
<g class="st1">
	<path class="st2" d="M24.6,1.8l1.1,0l0-1.1l-1.1,0L24.6,1.8z M0.6,23c-0.4,0.4-0.5,1.1,0,1.6C1,25,1.7,25,2.1,24.6L0.6,23z
		 M25.3,16.9l0.4-15.1l-2.2-0.1l-0.4,15.1L25.3,16.9z M24.6,0.7L9.5,0.2L9.5,2.4l15.1,0.4L24.6,0.7z M23.9,1L0.6,23l1.5,1.6l23.3-22
		L23.9,1z"/>
</g>
</svg>
