<?xml version="1.0" encoding="utf-8"?>
<!-- Generator: Adobe Illustrator 24.1.1, SVG Export Plug-In . SVG Version: 6.00 Build 0)  -->
<svg version="1.1" id="Layer_1" xmlns="http://www.w3.org/2000/svg" xmlns:xlink="http://www.w3.org/1999/xlink" x="0px" y="0px"
	 viewBox="0 0 276 280" style="enable-background:new 0 0 276 280;" xml:space="preserve">
<style type="text/css">
	.st0{opacity:0.4;fill:none;stroke:#FFFFFF;enable-background:new    ;}
</style>
<path class="st0" d="M134.2,2.2c2.4-1.1,5.2-1.1,7.7,0l16.6,7.3c1.6,0.7,3.3,1,4.9,0.9l18.1-1.2c2.7-0.2,5.3,0.8,7.2,2.6l13.1,12.6
	c1.2,1.2,2.7,2,4.4,2.5l17.4,5c2.6,0.7,4.7,2.5,5.9,4.9l8,16.3c0.7,1.5,1.9,2.8,3.2,3.9l14.7,10.7c2.2,1.6,3.6,4,3.8,6.7l1.9,18
	c0.2,1.7,0.8,3.3,1.7,4.7l10.1,15.1c1.5,2.2,2,5,1.3,7.6l-4.3,17.6c-0.4,1.7-0.4,3.4,0,5l4.3,17.6c0.6,2.6,0.2,5.3-1.3,7.6
	l-10.1,15.1c-0.9,1.4-1.5,3-1.7,4.7l-1.9,18c-0.3,2.7-1.7,5.1-3.8,6.7l-14.7,10.7c-1.4,1-2.5,2.3-3.2,3.9l-8,16.3
	c-1.2,2.4-3.3,4.2-5.9,4.9l-17.4,5c-1.6,0.5-3.1,1.3-4.4,2.5l-13.1,12.6c-1.9,1.9-4.5,2.8-7.2,2.6l-18.1-1.2
	c-1.7-0.1-3.4,0.2-4.9,0.9l-16.6,7.3c-2.4,1.1-5.2,1.1-7.7,0l-16.6-7.3c-1.6-0.7-3.3-1-4.9-0.9l-18.1,1.2c-2.7,0.2-5.3-0.8-7.2-2.6
	l-13.1-12.6c-1.2-1.2-2.7-2-4.4-2.5l-17.4-5c-2.6-0.7-4.7-2.5-5.9-4.9l-8-16.3c-0.7-1.5-1.9-2.8-3.2-3.9l-14.7-10.7
	c-2.2-1.6-3.6-4-3.8-6.7l-1.9-18c-0.2-1.7-0.8-3.3-1.7-4.7L3,167.7c-1.5-2.2-2-5-1.3-7.6L6,142.5c0.4-1.7,0.4-3.4,0-5l-4.3-17.6
	c-0.6-2.6-0.2-5.3,1.3-7.6l10.1-15.1c0.9-1.4,1.5-3,1.7-4.7l1.9-18c0.3-2.7,1.7-5.1,3.8-6.7l14.7-10.7c1.4-1,2.5-2.3,3.2-3.9l8-16.3
	c1.2-2.4,3.3-4.2,5.9-4.9l17.4-5c1.6-0.5,3.1-1.3,4.4-2.5l13.1-12.6c1.9-1.9,4.5-2.8,7.2-2.6l18.1,1.2c1.7,0.1,3.4-0.2,4.9-0.9
	L134.2,2.2z"/>
</svg>
