<?xml version="1.0" encoding="utf-8"?>
<!-- Generator: Adobe Illustrator 24.1.1, SVG Export Plug-In . SVG Version: 6.00 Build 0)  -->
<svg version="1.1" id="Layer_1" xmlns="http://www.w3.org/2000/svg" xmlns:xlink="http://www.w3.org/1999/xlink" x="0px" y="0px"
	 viewBox="0 0 166 106.3" style="enable-background:new 0 0 166 106.3;" xml:space="preserve">
<style type="text/css">
	.st0{fill-rule:evenodd;clip-rule:evenodd;fill:#191919;}
</style>
<path class="st0" d="M87.1,1L87.1,1c-0.4,0.5-0.8,1-1.3,1.5c-1,0.9-2,1.8-3,2.7l0,0C80.2,7.6,77.7,9.9,75,12
	C61.6,22.5,48.2,33,34.9,43.5L9.1,63.9l0,0c-0.4,0.3-0.8,0.6-1.1,0.9c-0.7,0.6-1.5,1-2.4,0.2c-0.7-0.6-0.7-1.7-0.1-2.4
	c0.6-1,1.4-2,2.2-2.8l1.4-1.3l0,0c2.8-2.6,5.7-5.2,8.7-7.5C39.4,34.4,61.1,17.9,83.6,2.5c1.2-0.9,2.5-1.7,3.8-2.5
	c0.1,0.1,0.3,0.2,0.4,0.2C87.6,0.5,87.3,0.7,87.1,1z M166,21.9c-0.4,0.2-0.7,0.4-1.1,0.6s-0.7,0.5-1,0.6c-14.6,8.6-29,17.5-43.1,27
	c-21.6,14.4-43,29.2-63.4,45.2c-3.8,3-7.5,6-11.2,9c-0.5,0.5-1.1,0.9-1.7,1.3c-0.8,0.6-1.6,0.9-2.4,0.2c-0.7-0.6-0.7-1.7-0.1-2.4
	c0.6-1,1.3-2,2.2-2.8l0.1-0.1c2.4-2.3,5-4.5,7.6-6.6c30.4-23,61.6-44.5,94.9-63c3.8-2.1,7.7-4.1,11.6-6c1.9-1,3.9-2,5.8-3
	c0.5-0.2,1-0.4,1.4-0.6C165.8,21.6,165.9,21.7,166,21.9z M99.9,8.5c0.7-0.5,1.3-1.1,1.9-1.7c-0.1-0.1-0.3-0.2-0.5-0.3
	c-0.7,0.5-1.4,1-2.1,1.6s-1.4,1-2.1,1.6L85,18.3l0,0C65.7,32.2,46.4,46.1,27.2,60.2c-5.4,3.9-10.5,8.1-15.6,12.3l0,0
	c-2.1,1.7-4.2,3.5-6.3,5.2c-1.5,1.2-2.8,2.6-4.1,4c-0.6,0.5-1,1.1-1.2,1.8C-0.1,84,0.1,84.6,0.4,85c0.4,0.3,1,0.4,1.5,0.2
	c0.8-0.4,1.5-0.9,2.2-1.5c2.4-2,4.8-4,7.2-6c4.2-3.6,8.5-7.1,12.8-10.5C34.7,59,45.3,50.8,56,42.7l0,0c7.8-6,15.6-12,23.4-18
	C86.3,19.3,93.1,13.9,99.9,8.5L99.9,8.5z M100.4,22c-1.1,1-2.2,2-3.4,2.9l-10,7.8l0,0c-11,8.5-22,17-32.9,25.6
	C47.7,63.4,41.3,68.6,35,73.7c-3.5,2.9-7,5.7-10.5,8.5l0,0c-0.8,0.7-1.6,1.4-2.5,1.9c-0.6,0.3-1.3,0.3-1.9,0
	c-0.4-0.5-0.5-1.3-0.2-1.9c0.4-0.9,1-1.6,1.7-2.3l2.1-1.9l0,0c1.7-1.6,3.4-3.2,5.3-4.7c20-15.8,40.2-31.3,61.3-45.6
	c2.3-1.6,4.7-3.1,7.1-4.6l0,0l1.5-1c0.4-0.2,0.8-0.4,1.2-0.7c0.1,0.1,0.1,0.2,0.2,0.3l0,0L100.4,22z M107.4,35.4l0.6-0.6
	c-0.1-0.1-0.3-0.2-0.4-0.3l0,0c-1.5,1.1-3,2.2-4.5,3.2c-16.7,11.1-32.8,23-48.7,35.1c-4.7,3.5-9.3,7.1-13.9,10.7l0,0
	c-0.9,0.7-1.7,1.5-2.4,2.3c-0.7,0.6-0.8,1.7-0.2,2.4c0.5,0.7,1.6,0.9,2.3,0.4c0,0,0.1,0,0.1-0.1c1.1-0.6,2.2-1.3,3.2-2.1
	c1.8-1.4,3.5-2.8,5.2-4.3s3.5-2.8,5.2-4.3c12.1-9.5,24.3-19,36.5-28.4l15-12C106.1,36.9,106.7,36.2,107.4,35.4z"/>
</svg>
