<svg width="276" height="168" viewBox="0 0 276 168" fill="none" xmlns="http://www.w3.org/2000/svg">
<path d="M233.375 102.976C254.853 90.6227 265.234 74.5335 270.397 59.8867C277.802 38.8703 275.958 17.5432 253.847 5.85025C249.659 3.6385 244.453 1.75533 237.598 2.06587C226.902 2.55162 215.763 8.10103 207.128 13.5619C185.61 27.1631 170.011 42.7819 155.932 58.239C142.817 72.635 130.713 87.1234 119.621 101.704C110.952 113.079 102.835 124.738 100.744 135.777C100.448 137.356 100.387 139.083 102.344 139.81C103.662 140.237 105.435 140.279 107.296 139.927C115.05 138.606 120.628 133.432 123.85 129.074C139.983 107.117 136.735 85.8782 125.857 68.3315C122.357 62.6984 117.502 57.0221 107.109 55.399C93.1548 53.208 73.247 59.4261 60.2821 67.7283C47.3171 76.0305 39.8876 85.9063 33.5858 95.4235C17.7251 119.437 6.67688 143.411 0.67924 166.83" stroke="white" stroke-width="3" stroke-miterlimit="10"/>
</svg>
