<?xml version="1.0" encoding="utf-8"?>
<!-- Generator: Adobe Illustrator 24.1.1, SVG Export Plug-In . SVG Version: 6.00 Build 0)  -->
<svg version="1.1" id="Layer_1" xmlns="http://www.w3.org/2000/svg" xmlns:xlink="http://www.w3.org/1999/xlink" x="0px" y="0px"
	 viewBox="0 0 8192 5118" style="enable-background:new 0 0 8192 5118;" xml:space="preserve">
<style type="text/css">
	.st0{fill:#2D2D2D;}
</style>
<path class="st0" d="M7762.1,4711.4h-2.8c-114-144.4-225.9-292.3-337.3-439.6c-367.8-486.3-731.6-967.4-1157.7-1302.2
	C5282,2197.5,3968,2203,1509,4711.4h-3.1C3967.1,2200.3,5282.3,2195,6265.7,2967.9c426.3,335,790.1,816.1,1158,1302.6
	C7535.6,4418.3,7647.7,4566.6,7762.1,4711.4 M7859,4711.4h-3c-145.5-168.9-288.1-344.3-430.5-519.4
	c-395.3-486.2-789.3-970.8-1241-1311.1c-1059.2-798-2436-801.5-4890.9,1830.5h-3c2457-2634.7,3835-2631.1,4895.4-1832.2
	c451.9,340.4,846,825.2,1241.4,1311.4C7570.1,4366.3,7713.1,4542.1,7859,4711.4L7859,4711.4z M7973.1,4711.4h-3.1
	c-179.2-191.2-355.1-393.4-531.3-596c-425.1-488.7-852.5-979.9-1334-1326.6C4965.2,1968.6,3522.2,1959,1088.1,4711.4h-3
	c2436-2755.1,3880.3-2745.4,5020.9-1924.3c481.7,346.8,909.2,838.2,1334.4,1326.9C7617.1,4317.1,7793.4,4519.8,7973.1,4711.4
	L7973.1,4711.4z M8104.5,4711.4h-3.2c-214.4-210.9-425.8-439-638.7-668.8c-458.1-494.3-923.1-996.1-1439.9-1350.4
	c-1222.5-838-2734.8-849.2-5129.9,2019.1H890c2396.8-2871,3910.4-2859.6,5134.1-2020.9c516.9,354.3,982.1,856.3,1440.3,1350.6
	C7677.7,4271.5,7889.6,4500.1,8104.5,4711.4L8104.5,4711.4z M8192,4655.2v3c-230.7-213.4-460.5-447.1-693.3-683.8
	C7003.5,3470.7,6495,2953.5,5936.2,2590.2c-1307.5-850-2891.3-856.9-5227.9,2121.2h-2.8c2338.3-2980.8,3923.4-2973.7,5232-2123
	c559,363.4,1067.6,880.7,1562.9,1384.5C7732.6,4209,7961.8,4442.2,8192,4655.2L8192,4655.2z M8192,4513.7v3
	c-212.1-190.1-425.9-395.9-643.3-605.2c-537.6-517.5-1097-1056-1706.6-1430.1c-1393.5-855.2-3049.6-850.2-5307.3,2230h-2.8
	c2259.2-3082.8,3916.5-3087.7,5311.3-2231.8c609.7,374.2,1169.3,912.8,1707,1430.4C7767.2,4118.7,7980.4,4324,8192,4513.7
	L8192,4513.7z M8192,4371.8v3c-189.1-164.5-381.3-340.3-577.3-519.6c-586.3-536.3-1206.4-1103.5-1877.4-1490.1
	c-1479.4-852.5-3206.6-826.4-5364.2,2346.3h-2.7C2529.3,1536.1,4257.8,1510,5738.5,2363.2c671.2,386.8,1291.4,954.1,1877.8,1490.4
	C7811.7,4032.4,8003.4,4207.7,8192,4371.8L8192,4371.8z M8192,4229.6v2.9c-160.7-135.8-325-279.2-492.7-425.5
	c-642.1-560.4-1335.5-1165.5-2081.2-1566.5C4054,1399.6,2259.2,1457.3,223.4,4711.4h-2.6C2257.7,1454.7,4053.9,1397,5619.2,2238.6
	c746,401,1439.5,1006.3,2081.6,1566.8C7868,3951.3,8031.7,4094.2,8192,4229.6L8192,4229.6z M8192,4087.1v2.9
	c-125.9-103.5-254.6-211.1-385.9-321c-705.6-590.2-1488.3-1244.9-2325.2-1661.6C3835,1288,1979.3,1389.3,86.9,4711.4h-2.6
	c1893.4-3324.6,3750.4-3425.9,5397.5-2605.9C6319,2522.3,7101.8,3177,7807.5,3767.3C7938.4,3876.7,8066.6,3984,8192,4087.1
	L8192,4087.1z M8192,3944.2v2.8c-82.7-66.2-166.8-133.8-252.4-202.9C7162.8,3118.5,6270,2399.4,5321.7,1966.1
	C3610.7,1184.3,1718.6,1333.6,0,4641.4v-4.9c1718.8-3305.6,3611.2-3454.4,5322.7-2672.4c948.5,433.4,1841.4,1152.7,2618.3,1778.4
	C8026.1,3811,8109.8,3878.3,8192,3944.2L8192,3944.2z M8192,3801.1v2.8c-28.3-22.1-56.8-44.3-85.5-66.7
	c-853.8-666.2-1884.1-1470.1-2969.1-1920C3399,1096.4,1519.9,1284.5,0,4402.6v-5.1c1520.3-3115.6,3399.6-3303.3,5138.3-2582.3
	c1085.3,450.1,2115.7,1254,2969.6,1920.3C8136.1,3757.5,8164.2,3779.4,8192,3801.1L8192,3801.1z M8192,3657.8v2.8
	c-913.5-694.6-2068.1-1553.3-3267.6-1998.5C3175.1,1012.8,1330.4,1243.8,0,4146.4v-5.3c1331-2899.9,3175.7-3130.3,4925.3-2481
	C6124.4,2105.1,7278.7,2963.2,8192,3657.8L8192,3657.8z M8192,3514.2v2.8c-963.4-715.2-2225.1-1594.7-3511.7-2014.3
	C2940.1,935,1154.5,1209.3,0,3869.6v-5.6c1155.2-2657.3,2940.8-2931,4681-2363.4C5967.3,1920.1,7228.6,2799.1,8192,3514.2
	L8192,3514.2z M8192,3370.4v2.7c-1115.2-808.7-2667.6-1814.8-4173.9-2125.7C2444.7,922.8,921.7,1357.4,0,3568.5v-5.8
	C922.4,1354.6,2445.3,920.7,4018.6,1245.4C5524.7,1556.1,7076.7,2561.8,8192,3370.4L8192,3370.4z M8192,3226.4v2.7
	c-1136.5-805.7-2763.7-1794.3-4314-2093.4C2311.4,833.5,823.6,1235.4,0,3241.6v-5.8C824.4,1232.6,2312.1,831.4,3878.4,1133.6
	C5428.5,1432.7,7055.3,2420.8,8192,3226.4L8192,3226.4z M8192,3082.3v2.7c-1154.9-800.8-2851.7-1768.9-4442.7-2058.9
	C3128.9,913,2524.7,903,1975,1046.2S930.3,1485.7,528,1985.4c-200.7,249.4-378.3,549.4-528,906.3v-5.8
	C149.3,2531,326.4,2232.4,526.3,1984c402.6-500,898.1-796.6,1448.2-940s1154.6-133.3,1775.2-20.2
	C5340.5,1313.9,7036.9,2281.5,8192,3082.3L8192,3082.3z M8192,2937.9v2.7c-1231.6-836-3117.6-1839.1-4815.3-2061.5
	c-582.3-76.3-1142.4-60.7-1646.4,84.9s-951.5,421.4-1309,865.4c-159.4,198-300.8,429.4-421.3,697.7v-5.5
	C120.1,2255.1,261,2025,419.5,1828c357.8-444.4,805.9-720.4,1310.2-866.2s1064.7-161.3,1647.3-85
	C5074.5,1099.3,6960.1,2101.9,8192,2937.9L8192,2937.9z M8192,2793.4v2.7c-895-595-2154.5-1266.8-3435.6-1678.8
	c-957.2-307.9-1926.3-470.9-2764.3-348.5c-837.8,122.3-1544.5,529.9-1976.9,1363c-5.1,9.8-10.1,19.7-15.1,29.6v-5
	c4.4-8.6,8.7-17.1,13.1-25.6C445.9,1296.9,1153.2,889,1991.8,766.6c838.3-122.4,1807.9,40.6,2765.4,348.6
	C6037.8,1527.1,7296.9,2198.5,8192,2793.4L8192,2793.4z M8192,2648.7v2.6c-956.7-623.3-2350.3-1321.8-3740.4-1715.4
	c-946.4-268-1891.2-394.7-2695.3-260C1014.8,800.1,393,1146.5,0,1809.2v-4.4C393.5,1143.6,1015,797.8,1755.9,673.8
	c804.4-134.7,1749.6-8,2696.3,260.1C5842,1327.4,7235.2,2025.5,8192,2648.7L8192,2648.7z M8192,2503.9v2.6
	c-1020.2-651.8-2559.3-1375.6-4059.7-1745c-930.9-229.2-1846.9-321.9-2614.6-176.4C887.3,704.7,356.8,984.9,0,1482.2v-3.8
	c357.2-496.2,887.4-776,1517.3-895.4c768.1-145.6,1684.4-52.8,2615.6,176.4C5632.9,1128.7,7171.6,1852.2,8192,2503.9L8192,2503.9z
	 M8192,2359v2.6c-1084.5-679.6-2778.7-1426.3-4387.9-1766c-911.3-192.4-1795.2-254.2-2525.4-99.4C759.7,606.2,318.4,825.7,0,1185.6
	v-3.4C318.6,823.1,759.6,603.9,1278.2,494c730.6-154.9,1614.8-93.1,2526.4,99.4C5413.4,933,7107.3,1679.4,8192,2359L8192,2359z
	 M1730.7,4711.4c2453.5-2383.6,3709-2399.7,4616.3-1657.3c403.9,330.3,739.8,810.2,1081.9,1299c83.7,119.6,167.8,239.7,253.3,358.3
	h-2.8c-85.2-118.2-169-237.9-252.4-357.1c-342-488.7-677.8-968.5-1081.5-1298.6c-909.3-743.4-2163.9-727.4-4611.7,1655.6
	L1730.7,4711.4z"/>
</svg>
